<svg id="Layer_1" enable-background="new 0 0 512.028 512.028" height="512" viewBox="0 0 512.028 512.028" width="512" xmlns="http://www.w3.org/2000/svg"><ellipse cx="111.593" cy="111.607" fill="#e88793" rx="111.594" ry="111.593" transform="matrix(.16 -.987 .987 .16 -16.448 203.882)"/><ellipse cx="400.407" cy="111.607" fill="#ae5ecc" rx="111.593" ry="111.593" transform="matrix(.707 -.707 .707 .707 38.359 315.819)"/><ellipse cx="111.593" cy="400.421" fill="#f0a567" rx="111.593" ry="111.593" transform="matrix(.707 -.707 .707 .707 -250.455 196.189)"/><ellipse cx="400.407" cy="400.421" fill="#91c656" rx="111.593" ry="111.593" transform="matrix(.707 -.707 .707 .707 -165.864 400.411)"/><path d="m52.083 400.421c64.28 31.772 128.95 41.965 167.751 27.174 17.694-70.451-35.848-138.768-108.24-138.768-54.517 0-100.022 39.299-109.691 91.054 16.682 5.578 33.583 12.336 50.18 20.54z" fill="#fdaa6a"/><path d="m400.407 288.827c-31.096 0-59.257 12.79-79.513 33.379 74.232.378 130.805 100.905 171.584 141.195 50.219-73.185-1.981-174.574-92.071-174.574z" fill="#9bd65e"/><path d="m400.407.014c-72.195 0-125.576 67.863-108.405 138.094 33.208 12.176 94.406 24.682 134.769-26.5 19.968-25.32 46.884-40.549 73.559-49.644-18.302-36.687-56.215-61.95-99.923-61.95z" fill="#ae67ce"/><path d="m223.178 112.226c.346-61.7-49.732-112.212-111.585-112.212-59.95 0-109.002 47.52-111.486 106.869 23.408 17.936 55.675 31.096 93.608 15.997 43.673-17.384 93.416-15.714 129.463-10.654z" fill="#fc93a0"/><path d="m72.063 125.281h23.04v23.039c0 9.107 7.383 16.49 16.49 16.49s16.49-7.383 16.49-16.49v-23.039h23.04c9.107 0 16.49-7.383 16.49-16.49s-7.383-16.49-16.49-16.49h-23.04v-23.04c0-9.107-7.383-16.49-16.49-16.49s-16.49 7.383-16.49 16.49v23.04h-23.04c-9.107 0-16.49 7.383-16.49 16.49s7.383 16.49 16.49 16.49z"/><path d="m151.206 360.809c-6.439-6.44-16.881-6.44-23.321 0l-16.292 16.291-16.292-16.291c-6.439-6.441-16.881-6.441-23.321 0-6.44 6.439-6.44 16.881 0 23.32l16.292 16.291-16.292 16.291c-6.44 6.44-6.44 16.882 0 23.321 6.438 6.439 16.88 6.442 23.321 0l16.292-16.292 16.292 16.292c6.437 6.439 16.881 6.442 23.321 0 6.44-6.439 6.44-16.881 0-23.321l-16.292-16.291 16.292-16.291c6.44-6.439 6.44-16.881 0-23.32z"/><path d="m439.688 384.111h-79.061c-9.107 0-16.49 7.383-16.49 16.49s7.383 16.49 16.49 16.49h79.061c9.107 0 16.49-7.383 16.49-16.49s-7.383-16.49-16.49-16.49z"/><path d="m400.157 376.892c9.107 0 16.49-7.383 16.49-16.49v-4.083c0-9.107-7.383-16.49-16.49-16.49s-16.49 7.383-16.49 16.49v4.083c0 9.107 7.383 16.49 16.49 16.49z"/><path d="m400.157 423.949c-9.107 0-16.49 7.383-16.49 16.49v4.083c0 9.107 7.383 16.49 16.49 16.49s16.49-7.383 16.49-16.49v-4.083c0-9.107-7.382-16.49-16.49-16.49z"/><path d="m360.627 128.097h79.061c9.107 0 16.49-7.383 16.49-16.49s-7.383-16.49-16.49-16.49h-79.061c-9.107 0-16.49 7.383-16.49 16.49s7.383 16.49 16.49 16.49z"/><path d="m207.708 223.362c0 9.107 7.383 16.49 16.49 16.49h63.604c9.107 0 16.49-7.383 16.49-16.49s-7.383-16.49-16.49-16.49h-63.604c-9.108 0-16.49 7.383-16.49 16.49z"/><path d="m304.292 288.665c0-9.107-7.383-16.49-16.49-16.49h-63.604c-9.107 0-16.49 7.383-16.49 16.49s7.383 16.49 16.49 16.49h63.604c9.108 0 16.49-7.382 16.49-16.49z"/><path d="m111.593 223.2c61.533 0 111.593-50.061 111.593-111.594 0-61.532-50.06-111.593-111.593-111.593s-111.593 50.061-111.593 111.594 50.061 111.593 111.593 111.593zm0-190.206c43.347 0 78.612 35.266 78.612 78.612 0 43.348-35.265 78.613-78.612 78.613s-78.613-35.266-78.613-78.613c0-43.346 35.266-78.612 78.613-78.612z"/><path d="m400.407 223.2c61.532 0 111.593-50.06 111.593-111.593s-50.061-111.593-111.593-111.593-111.593 50.06-111.593 111.593 50.06 111.593 111.593 111.593zm0-190.206c43.347 0 78.613 35.266 78.613 78.612 0 43.348-35.266 78.613-78.613 78.613s-78.612-35.266-78.612-78.613c0-43.346 35.265-78.612 78.612-78.612z"/><path d="m111.593 288.827c-61.532 0-111.593 50.061-111.593 111.594 0 61.532 50.061 111.593 111.593 111.593s111.593-50.061 111.593-111.593c0-61.533-50.06-111.594-111.593-111.594zm0 190.206c-43.347 0-78.613-35.266-78.613-78.612 0-43.348 35.266-78.613 78.613-78.613s78.612 35.266 78.612 78.613-35.265 78.612-78.612 78.612z"/><path d="m400.407 288.827c-61.533 0-111.593 50.061-111.593 111.594 0 61.532 50.06 111.593 111.593 111.593s111.593-50.061 111.593-111.593c0-61.533-50.061-111.594-111.593-111.594zm0 190.206c-43.347 0-78.612-35.266-78.612-78.612 0-43.348 35.265-78.613 78.612-78.613s78.613 35.266 78.613 78.613-35.266 78.612-78.613 78.612z"/></svg>